<svg xmlns="http://www.w3.org/2000/svg" viewBox="0 0 900 640"><rect width="900" height="640" rx="32" fill="#f4f4f5"/><g transform="translate(145 105)"><rect width="360" height="430" rx="24" fill="#fff" stroke="#d7dade" stroke-width="6"/><path d="M70 90h220M70 145h160M70 200h205" stroke="#b9bdc2" stroke-width="18" stroke-linecap="round"/><rect x="70" y="265" width="220" height="100" rx="15" fill="#f1f2f3"/><path d="M92 320h175" stroke="#d71920" stroke-width="12" stroke-linecap="round"/><circle cx="287" cy="365" r="38" fill="#d71920"/><path d="M269 365l12 12 24-30" fill="none" stroke="#fff" stroke-width="10" stroke-linecap="round" stroke-linejoin="round"/></g><g transform="translate(500 120)"><path d="M150 0l135 50v120c0 112-72 190-135 220C87 360 15 282 15 170V50z" fill="#34373c"/><path d="M150 44l91 34v92c0 79-48 136-91 161-43-25-91-82-91-161V78z" fill="#d71920"/><path d="M98 175l35 35 75-90" fill="none" stroke="#fff" stroke-width="24" stroke-linecap="round" stroke-linejoin="round"/></g></svg>